<svg width="21" height="21" viewBox="0 0 21 21" fill="none" xmlns="http://www.w3.org/2000/svg">
<path d="M11.669 0.0214844C9.28979 0.0214844 7.34788 1.89542 7.23885 4.24772L7.23403 4.45648V5.38948C7.23403 5.8037 7.56981 6.13948 7.98403 6.13948C8.36372 6.13948 8.67752 5.85733 8.72718 5.49125L8.73403 5.38948V4.45648C8.73403 2.89358 9.95604 1.61575 11.4966 1.52647L11.669 1.52148H16.544C18.1061 1.52148 19.3838 2.74362 19.473 4.28406L19.478 4.45648V15.5865C19.478 17.1493 18.2561 18.4272 16.7164 18.5165L16.544 18.5215H11.659C10.1017 18.5215 8.82798 17.3039 8.73899 15.7693L8.73403 15.5975V14.6545C8.73403 14.2403 8.39824 13.9045 7.98403 13.9045C7.60433 13.9045 7.29053 14.1866 7.24087 14.5527L7.23403 14.6545V15.5975C7.23403 17.9687 9.10083 19.9046 11.4447 20.0164L11.659 20.0215H16.544C18.9225 20.0215 20.8642 18.1474 20.9732 15.7952L20.978 15.5865V4.45648C20.978 2.07743 19.1043 0.135347 16.7527 0.0263125L16.544 0.0214844H11.669ZM3.67396 6.50234L3.58968 6.57478L0.661676 9.48978C0.635313 9.51594 0.612169 9.54256 0.590965 9.57073L0.661676 9.48978C0.631126 9.52019 0.603746 9.55258 0.579536 9.58653C0.562437 9.61028 0.546663 9.63538 0.532393 9.66142C0.529802 9.66648 0.527155 9.67145 0.52457 9.67645C0.51193 9.70042 0.500689 9.72529 0.490805 9.75084C0.486761 9.76202 0.482706 9.77334 0.478933 9.78473C0.471634 9.80575 0.465498 9.8274 0.460333 9.84942C0.45792 9.86118 0.455479 9.87286 0.45332 9.88457C0.449196 9.90501 0.446211 9.9261 0.444122 9.94745C0.442987 9.96231 0.44198 9.97701 0.441404 9.99174C0.440718 10.0016 0.440525 10.0115 0.440525 10.0214L0.44136 10.0497C0.44194 10.0651 0.442989 10.0805 0.444513 10.0958L0.440525 10.0214C0.440525 10.0682 0.444818 10.1141 0.453037 10.1585C0.455463 10.1696 0.457914 10.1814 0.460648 10.193C0.465696 10.2162 0.472103 10.2387 0.479506 10.2607C0.483311 10.2709 0.487038 10.2813 0.491001 10.2915C0.500269 10.3164 0.511095 10.3405 0.523115 10.3639C0.526114 10.3692 0.529249 10.3751 0.532471 10.381C0.56691 10.4443 0.610012 10.5015 0.660194 10.5517L0.661585 10.5527L3.58958 13.4687C3.88308 13.761 4.35795 13.76 4.65024 13.4665C4.91596 13.1997 4.93931 12.783 4.72086 12.4898L4.64807 12.4059L3.00903 10.7705L13.2315 10.7714C13.6457 10.7714 13.9815 10.4356 13.9815 10.0214C13.9815 9.64169 13.6994 9.32789 13.3333 9.27823L13.2315 9.27139L3.00702 9.27048L4.64797 7.63779C4.91483 7.37212 4.93997 6.95551 4.72276 6.66142L4.65033 6.57714C4.38466 6.31028 3.96805 6.28514 3.67396 6.50234Z" fill="#EA7C69"/>
</svg>
