<svg width="21" height="19" viewBox="0 0 21 19" fill="none" xmlns="http://www.w3.org/2000/svg">
<path d="M5.67881 0.758057C4.16486 0.775107 2.7239 1.41599 1.69153 2.5315C0.659161 3.64701 0.12549 5.13976 0.213488 6.61703L0.214809 12.854C0.12549 14.3763 0.659161 15.8691 1.69153 16.9846C2.7239 18.1001 4.16486 18.741 5.68727 18.7581H14.7479C17.9175 18.7581 20.2041 16.1965 20.2041 12.8991V6.61703C20.2041 3.31957 17.9175 0.758057 14.7479 0.758057H5.67881ZM5.69572 2.28644H14.7479C17.0413 2.28644 18.6867 4.12961 18.6867 6.61703V12.8991C18.6867 15.3865 17.0413 17.2297 14.7479 17.2297H5.69572C4.5968 17.2173 3.55087 16.7521 2.80151 15.9424C2.05215 15.1327 1.66477 14.0492 1.73093 12.8991L1.7296 6.57194C1.66477 5.46693 2.05215 4.38339 2.80151 3.57368C3.55087 2.76397 4.5968 2.29878 5.69572 2.28644ZM4.18007 6.39642C3.94202 6.69598 3.96412 7.12067 4.21589 7.39357L4.29828 7.47061L8.40526 10.7817C9.40275 11.5648 10.781 11.6039 11.8211 10.8956L11.9824 10.7775L16.1168 7.47259C16.4451 7.21022 16.5 6.72952 16.2395 6.39891C16.0027 6.09837 15.5867 6.02533 15.2665 6.21166L15.1735 6.27537L11.0443 9.57618C10.5813 9.93964 9.94664 9.9676 9.4633 9.66487L9.34581 9.5823L5.24653 6.27736C4.91939 6.01361 4.44192 6.06692 4.18007 6.39642Z" fill="#EA7C69"/>
</svg>
