<svg width="18" height="20" viewBox="0 0 18 20" fill="none" xmlns="http://www.w3.org/2000/svg">
<path d="M6.39204 17.6906C6.09546 17.9321 6.04846 18.3713 6.28706 18.6715C6.46345 18.8935 6.66727 19.0922 6.88328 19.255C7.6109 19.826 8.53599 20.0849 9.4547 19.9754C10.3742 19.8659 11.213 19.3962 11.7854 18.6689C12.0226 18.3676 11.9735 17.9286 11.6758 17.6885C11.3781 17.4484 10.9445 17.4981 10.7073 17.7995C10.3621 18.2381 9.85331 18.523 9.2936 18.5896C8.73309 18.6564 8.16925 18.4986 7.71744 18.1443C7.58422 18.0437 7.46449 17.927 7.36108 17.7969C7.12248 17.4967 6.68863 17.4491 6.39204 17.6906ZM15.8479 6.99974L15.8356 6.40391C15.8268 6.14906 15.8131 5.91248 15.7932 5.68096C15.4935 2.44456 12.4044 0 9.03521 0H8.96388C5.59656 0 2.50655 2.44285 2.19663 5.68536C2.17885 5.89148 2.17121 6.07458 2.16891 6.33206L2.16801 7.11982C2.16727 7.19158 2.16605 7.25469 2.16421 7.31353L2.15497 7.50977L2.11041 7.69688C1.96971 8.21802 1.72243 8.70525 1.38376 9.12821L1.23307 9.30546L1.17137 9.38467C0.765194 9.99168 0.533171 10.698 0.5 11.4587L0.500982 11.862C0.529325 12.763 0.860096 13.6331 1.46617 14.3582C2.26888 15.2101 3.35663 15.7393 4.51267 15.8457C7.49801 16.1699 10.51 16.1699 13.487 15.8466C14.651 15.7346 15.7356 15.2069 16.5734 14.3223C17.1912 13.5691 17.5196 12.6208 17.4991 11.6624L17.4983 11.4242C17.4626 10.6955 17.232 9.98985 16.8306 9.3802L16.7635 9.29378C16.2948 8.77993 15.9743 8.15105 15.8353 7.47306L15.8503 7.53395L15.8479 6.99974ZM8.96388 1.39535H9.03521C11.7335 1.39535 14.192 3.34087 14.4203 5.80678C14.432 5.94228 14.4413 6.08207 14.4486 6.2292L14.4647 6.69559L14.4712 7.61486L14.4856 7.75667C14.6756 8.68301 15.1127 9.54093 15.7507 10.2404L15.7014 10.1833L15.7896 10.3291C15.9546 10.6265 16.0611 10.9495 16.1032 11.2682L16.1206 11.4587L16.1208 11.6774C16.1343 12.3142 15.9191 12.9356 15.5463 13.3931C14.9712 13.9985 14.1932 14.377 13.3483 14.4583C10.4607 14.7719 7.5473 14.7719 4.64864 14.4572C3.81292 14.3802 3.03546 14.002 2.49162 13.4267C2.08005 12.933 1.86254 12.3097 1.87845 11.6536L1.87763 11.4901C1.89875 11.0186 2.04897 10.5613 2.31265 10.1672L2.29741 10.1926L2.43527 10.0309C2.91068 9.44409 3.25601 8.76351 3.4483 8.03396L3.51319 7.75818L3.52607 7.66551C3.53581 7.53013 3.54147 7.40982 3.54448 7.26514L3.54719 6.3605C3.54905 6.13044 3.55528 5.97558 3.56926 5.81326C3.80561 3.34075 6.26638 1.39535 8.96388 1.39535Z" fill="#EA7C69"/>
</svg>
