<svg width="20" height="20" viewBox="0 0 20 20" fill="none" xmlns="http://www.w3.org/2000/svg">
<path d="M11.5022 4.7606C11.4145 4.93485 11.3618 5.12392 11.3467 5.32102L10.9581 10.8095C10.9529 10.8847 10.9173 10.9548 10.8591 11.0042C10.8155 11.0413 10.7619 11.0645 10.702 11.0712L10.6401 11.0724L5.06593 10.7366C4.61327 10.71 4.16948 10.8675 3.83962 11.1719C3.50976 11.4763 3.32316 11.9004 3.32558 12.3912C3.57348 16.0037 6.22696 19.0237 9.84097 19.8065C13.455 20.5893 17.1639 18.9474 18.9422 15.7848C19.4177 14.9695 19.7382 14.0778 19.8862 13.1749L19.9336 12.8359C19.9747 12.5821 19.9968 12.3257 20 12.0795L19.9969 11.8372C19.9866 8.06546 17.3384 4.80403 13.6119 3.92434L13.3562 3.86807L13.2186 3.84532C12.498 3.74681 11.789 4.12453 11.5022 4.7606ZM12.9836 5.27813L13.0678 5.28772L13.2963 5.33933C16.2647 6.05477 18.3938 8.61031 18.512 11.621L18.5172 11.8661C18.5243 12.0525 18.5175 12.2392 18.495 12.4378L18.4672 12.6408C18.3679 13.495 18.0921 14.3206 17.6509 15.0772C16.1837 17.6863 13.1333 19.0367 10.161 18.3929C7.18869 17.7491 5.00636 15.2653 4.80417 12.3414C4.80417 12.2974 4.82262 12.2552 4.85537 12.225C4.8772 12.2049 4.90406 12.1912 4.93253 12.1851L4.97603 12.1817L10.541 12.5169C11.0106 12.5503 11.4745 12.3992 11.83 12.0971C12.1854 11.7951 12.4032 11.3669 12.4348 10.91L12.823 5.42617C12.8237 5.41708 12.8261 5.40822 12.8432 5.37299C12.8685 5.31695 12.9235 5.28131 12.9836 5.27813ZM8.57701 0.00105033C4.29155 0.122269 0.697149 3.20162 0.00958061 7.34084L0 7.4567L0.00225449 7.65855C0.0263157 7.95621 0.146231 8.23931 0.345549 8.46677C0.595858 8.75241 0.952288 8.92862 1.34121 8.95674L7.98667 9.39005C8.83851 9.43818 9.57052 8.80509 9.6259 7.97348L10.0701 1.44914L10.0651 1.30295L10.043 1.13824C9.98377 0.84619 9.83159 0.579378 9.6075 0.376428C9.32609 0.121564 8.95263 -0.0133911 8.57701 0.00105033ZM8.58873 1.44902L8.14891 7.87814C8.14631 7.91719 8.11198 7.94688 8.07858 7.94502L1.48177 7.51352L1.51457 7.33352C2.16825 4.0802 4.98808 1.66443 8.37126 1.45932L8.58873 1.44902Z" fill="#EA7C69"/>
</svg>
