<svg width="20" height="20" viewBox="0 0 20 20" fill="none" xmlns="http://www.w3.org/2000/svg">
<path d="M9.3839 2.17992e-07C8.67488 -0.000285658 7.99594 0.280614 7.50173 0.77871C7.00752 1.27681 6.74014 1.94968 6.76166 2.57766L6.75317 2.72535C6.73591 2.87079 6.68757 3.01116 6.60921 3.14054C6.45651 3.39567 6.2065 3.58081 5.91432 3.65514C5.62214 3.72947 5.31178 3.68688 5.01786 3.51839L4.85404 3.4355C3.62406 2.86897 2.14889 3.31918 1.46666 4.47928L0.853495 5.52174C0.837332 5.54922 0.823084 5.57762 0.810801 5.60674L0.753908 5.71842C0.205484 6.86519 0.595684 8.22927 1.63758 8.92228L1.89487 9.08068C2.02937 9.17256 2.14152 9.29258 2.22585 9.43678C2.37815 9.69291 2.41996 9.99795 2.342 10.2844C2.26404 10.5708 2.07276 10.8149 1.78261 10.9793L1.61566 11.0841C1.11133 11.4297 0.747026 11.9391 0.58811 12.523C0.408813 13.1817 0.504957 13.8833 0.860098 14.4804L1.51971 15.557L1.61916 15.7089C2.39418 16.8008 3.89894 17.1344 5.04729 16.485L5.18339 16.4163C5.32536 16.3541 5.47856 16.3199 5.61802 16.316C5.92139 16.3146 6.21276 16.432 6.42727 16.6422C6.64179 16.8524 6.76166 17.1379 6.76088 17.4698L6.76899 17.6414C6.88004 18.9703 8.01551 20 9.3836 20H10.6189C12.0678 20 13.2423 18.8493 13.2409 17.4753L13.2494 17.3277C13.2666 17.1822 13.315 17.0418 13.3973 16.9057C13.5466 16.65 13.7941 16.4633 14.0846 16.3871C14.3752 16.3109 14.6847 16.3516 14.9843 16.5213L15.1624 16.6084C15.7254 16.8565 16.3605 16.9023 16.9555 16.7366C17.6269 16.5497 18.1946 16.1083 18.5259 15.5224L19.1632 14.4442L19.248 14.2844C19.8284 13.0841 19.3735 11.6412 18.2189 10.9875L18.1135 10.9228C17.8051 10.7137 17.6201 10.3688 17.6201 10C17.6201 9.59896 17.8385 9.22838 18.2205 9.01151L18.3755 8.91408C19.49 8.15476 19.8305 6.68049 19.1401 5.50696L18.4908 4.46166C17.7687 3.23376 16.1684 2.81017 14.9376 3.50171L14.8044 3.5713C14.6686 3.63238 14.521 3.6648 14.379 3.66628C13.7526 3.66634 13.2422 3.17352 13.2328 2.54181L13.2242 2.3478C13.173 1.74716 12.9069 1.1827 12.472 0.754574C11.9814 0.27155 11.3145 2.17992e-07 10.6189 2.17992e-07H9.3839ZM9.3836 1.44774H10.6189C10.9214 1.44774 11.2113 1.56581 11.4247 1.77582C11.6137 1.96196 11.7294 2.20741 11.7497 2.43661L11.7632 2.7415C11.8666 4.07087 13.0003 5.11416 14.3867 5.11398C14.7441 5.11034 15.0964 5.03293 15.4557 4.87026L15.6481 4.77085C16.1962 4.46315 16.8951 4.64815 17.2194 5.19925L17.8687 6.24455C18.1662 6.75044 18.0174 7.39466 17.5568 7.70925L17.296 7.871C16.578 8.34666 16.1425 9.14295 16.1425 10C16.1425 10.8446 16.5659 11.634 17.2978 12.1296L17.4536 12.2256C17.9665 12.5163 18.1644 13.144 17.926 13.6383L17.8697 13.7449L17.2405 14.8084C17.0927 15.0696 16.8448 15.2624 16.5516 15.344C16.2917 15.4164 16.0143 15.3964 15.7979 15.3018L15.6892 15.2497C15.089 14.9066 14.3739 14.8126 13.7026 14.9886C13.0314 15.1645 12.4597 15.5959 12.1206 16.1768C11.9382 16.478 11.8228 16.8132 11.7781 17.1985L11.7579 17.552C11.6957 18.1145 11.2095 18.5523 10.6189 18.5523H9.3836C8.78628 18.5523 8.29012 18.1023 8.24351 17.5511L8.23786 17.4421C8.24122 16.7585 7.96553 16.1019 7.47215 15.6185C6.97877 15.1351 6.30863 14.865 5.59469 14.8686C5.2444 14.8778 4.89963 14.9547 4.54722 15.11L4.23125 15.2682C3.73532 15.4814 3.14706 15.3258 2.84891 14.9067L2.77642 14.7957L2.13204 13.7436C1.97974 13.4875 1.93793 13.1824 2.01589 12.896C2.08498 12.6422 2.24339 12.4207 2.43548 12.2882L2.70776 12.1195C3.22838 11.7748 3.60678 11.2563 3.76978 10.6574C3.94908 9.99866 3.85293 9.29707 3.50537 8.71262C3.3151 8.38716 3.05362 8.10733 2.7127 7.87532L2.55197 7.77613C2.03992 7.4827 1.84217 6.85504 2.07881 6.35884L2.14951 6.22529L2.16218 6.19726L2.74699 5.20208C3.02358 4.73175 3.59915 4.52853 4.08754 4.6891L4.19852 4.73265L4.30167 4.78415C4.89987 5.12941 5.61368 5.22736 6.28568 5.05641C6.95769 4.88546 7.53269 4.45965 7.88191 3.87616C8.06432 3.57504 8.17975 3.23984 8.22443 2.85454L8.23756 2.60249C8.22867 2.29923 8.34545 2.00536 8.56128 1.78783C8.77712 1.57029 9.07364 1.44774 9.3836 1.44774ZM9.99676 6.73182C8.15447 6.73182 6.661 8.19503 6.661 10C6.661 11.805 8.15447 13.2682 9.99676 13.2682C11.839 13.2682 13.3325 11.805 13.3325 10C13.3325 8.19503 11.839 6.73182 9.99676 6.73182ZM9.99676 8.17956C11.023 8.17956 11.8548 8.9946 11.8548 10C11.8548 11.0054 11.023 11.8204 9.99676 11.8204C8.97057 11.8204 8.13868 11.0054 8.13868 10C8.13868 8.9946 8.97057 8.17956 9.99676 8.17956Z" fill="#EA7C69"/>
</svg>
